<svg width="109.085205" height="35.463867" viewBox="0 0 109.085 35.4639" fill="none" xmlns="http://www.w3.org/2000/svg" xmlns:xlink="http://www.w3.org/1999/xlink">
	<desc>
			Created with Pixso.
	</desc>
	<defs/>
	<path id="Foody." d="M77.54 -8.21e-5L72.21 -8.21e-5L72.21 9.25Q71.68 8.75 70.61 8.41Q69.55 8.06 68.36 8.06Q66.46 8.06 64.95 8.71Q63.82 9.19 62.97 9.96Q62.67 10.23 62.41 10.53Q61.38 11.7 60.83 13.37Q60.3 15.04 60.3 17.1Q60.3 19.19 60.89 20.86Q61.48 22.53 62.53 23.71Q63.03 24.27 63.62 24.71Q64.27 25.18 65.02 25.51Q65.13 25.56 65.24 25.6Q66.59 26.13 68.15 26.13Q70.16 26.13 71.4 25.4Q72.65 24.66 73.15 23.87L73.33 23.87L73.87 25.74L77.54 25.74L77.54 -8.21e-5ZM14.76 7.24L14.76 3.06L-2.68e-5 3.06L-2.68e-5 25.74L5.47 25.74L5.47 16.91L13.97 16.91L13.97 12.77L5.47 12.77L5.47 7.24L14.76 7.24ZM34.68 20.81Q35.38 19.11 35.38 16.99Q35.38 14.8 34.7 13.14Q34.05 11.55 32.92 10.44Q32.87 10.39 32.83 10.35Q32.61 10.14 32.38 9.95Q31.34 9.11 30 8.64Q28.36 8.06 26.45 8.06Q24.55 8.06 22.89 8.7Q21.74 9.13 20.8 9.84Q20.39 10.15 20.01 10.52Q18.79 11.7 18.09 13.43Q17.38 15.16 17.38 17.35Q17.38 19.44 18.07 21.08Q18.74 22.67 19.87 23.76Q19.91 23.8 19.94 23.83Q20.06 23.94 20.18 24.05Q21.29 25.01 22.76 25.54Q24.41 26.13 26.31 26.13Q28.22 26.13 29.87 25.51Q31.14 25.03 32.14 24.23Q32.46 23.98 32.76 23.69Q32.86 23.58 32.97 23.48Q34.04 22.35 34.68 20.81ZM56.14 20.81Q56.84 19.11 56.84 16.99Q56.84 14.8 56.15 13.14Q55.51 11.55 54.38 10.44Q54.33 10.39 54.28 10.35Q54.07 10.14 53.84 9.95Q52.8 9.11 51.45 8.64Q49.82 8.06 47.91 8.06Q46 8.06 44.34 8.7Q43.2 9.13 42.26 9.84Q41.84 10.15 41.47 10.52Q40.25 11.7 39.54 13.43Q38.84 15.16 38.84 17.35Q38.84 19.44 39.53 21.08Q40.19 22.67 41.33 23.76Q41.36 23.8 41.4 23.83Q41.52 23.94 41.64 24.05Q42.75 25.01 44.22 25.54Q45.86 26.13 47.77 26.13Q49.68 26.13 51.33 25.51Q52.59 25.03 53.6 24.23Q53.92 23.98 54.21 23.69Q54.32 23.58 54.42 23.48Q55.5 22.35 56.14 20.81ZM86.86 8.46L81.04 8.46L88.38 25.63L88.31 25.91Q88.14 26.55 87.87 27.14Q87.36 28.24 86.45 29.16Q85.06 30.56 82.94 31.32L85.14 35.46Q87.12 34.81 88.52 33.8Q89.92 32.8 90.92 31.57Q91.57 30.76 92.09 29.87Q92.36 29.41 92.59 28.94Q92.77 28.56 92.94 28.18Q93.41 27.14 93.78 26.06L100 8.46L94.57 8.46L92.08 16.09L91 20.38L90.86 20.38L89.71 16.16L86.86 8.46ZM71.2 12.31Q71.89 12.7 72.21 13.13L72.21 20.55Q71.92 21.17 71.22 21.71Q71.13 21.78 71.03 21.84Q70.38 22.25 69.48 22.25Q68.58 22.25 67.86 21.89Q67.22 21.57 66.72 20.97Q65.66 19.69 65.66 16.99Q65.66 15.59 65.98 14.64Q66.31 13.68 66.86 13.07Q67.34 12.55 67.94 12.27Q68.04 12.22 68.15 12.19Q68.87 11.91 69.69 11.91Q70.24 11.91 70.72 12.08Q70.97 12.17 71.2 12.31ZM29.63 14.78Q29.92 15.76 29.92 17.17Q29.92 18.58 29.63 19.55Q29.34 20.52 28.85 21.12Q28.39 21.66 27.81 21.94Q27.77 21.96 27.73 21.98Q27.44 22.1 27.14 22.17Q26.79 22.25 26.42 22.25Q26.03 22.25 25.67 22.15Q24.72 21.91 23.94 21.03Q22.86 19.8 22.86 17.17Q22.86 15.66 23.14 14.67Q23.43 13.68 23.91 13.07Q24.41 12.46 25.03 12.2Q25.33 12.08 25.63 12.02Q25.98 11.95 26.35 11.95Q26.59 11.95 26.82 11.98Q27.26 12.05 27.68 12.24Q28.33 12.53 28.83 13.16Q29.34 13.79 29.63 14.78ZM51.08 14.78Q51.37 15.76 51.37 17.17Q51.37 18.58 51.08 19.55Q50.79 20.52 50.3 21.12Q49.85 21.66 49.27 21.94Q49.23 21.96 49.19 21.98Q48.9 22.1 48.6 22.17Q48.25 22.25 47.88 22.25Q47.49 22.25 47.12 22.15Q46.18 21.91 45.4 21.03Q44.32 19.8 44.32 17.17Q44.32 15.66 44.6 14.67Q44.89 13.68 45.37 13.07Q45.86 12.46 46.49 12.2Q46.78 12.08 47.09 12.02Q47.44 11.95 47.81 11.95Q48.05 11.95 48.28 11.98Q48.72 12.05 49.13 12.24Q49.78 12.53 50.28 13.16Q50.79 13.79 51.08 14.78Z" fill="#000000" fill-opacity="1.000000" fill-rule="evenodd"/>
	<path id="Foody." d="M103.28 21.45Q102.92 22.11 102.92 22.97Q102.92 24.09 103.44 24.84Q103.61 25.08 103.83 25.29Q104.27 25.69 104.79 25.9Q105.36 26.13 106.02 26.13Q106.7 26.13 107.27 25.89Q107.76 25.68 108.18 25.29Q108.39 25.09 108.55 24.86Q109.08 24.1 109.08 22.97Q109.08 22.1 108.72 21.43Q108.51 21.04 108.18 20.72Q107.72 20.27 107.17 20.05Q106.64 19.83 106.02 19.83Q105.42 19.83 104.89 20.04Q104.31 20.26 103.83 20.72Q103.49 21.05 103.28 21.45Z" fill="#D63626" fill-opacity="1.000000" fill-rule="evenodd"/>
</svg>
